<?xml version="1.0" encoding="UTF-8"?>
<svg width="33px" height="39px" viewBox="0 0 33 39" version="1.1" xmlns="http://www.w3.org/2000/svg" xmlns:xlink="http://www.w3.org/1999/xlink">
    <title>矩形 2</title>
    <defs>
        <radialGradient cx="79.5027657%" cy="28.1703867%" fx="79.5027657%" fy="28.1703867%" r="90.8348137%" gradientTransform="translate(0.795028,0.281704),scale(1.000000,0.847627),rotate(-135.826418),scale(1.000000,0.775767),translate(-0.795028,-0.281704)" id="radialGradient-1">
            <stop stop-color="#C9A6FE" offset="0%"></stop>
            <stop stop-color="#9880F6" stop-opacity="0" offset="100%"></stop>
        </radialGradient>
        <radialGradient cx="10.3657661%" cy="61.0848743%" fx="10.3657661%" fy="61.0848743%" r="90.8348137%" gradientTransform="translate(0.103658,0.610849),scale(1.000000,0.847627),rotate(-135.826418),scale(1.000000,0.775767),translate(-0.103658,-0.610849)" id="radialGradient-2">
            <stop stop-color="#A6E0FE" offset="0%"></stop>
            <stop stop-color="#9880F6" stop-opacity="0" offset="100%"></stop>
        </radialGradient>
        <path d="M1788.71906,1419.95011 C1788.8854,1420.09125 1789.03991,1420.24576 1789.18105,1420.4121 L1800.8371,1434.14889 C1802.73716,1436.38813 1802.73716,1439.67361 1800.8371,1441.91285 L1789.18105,1455.64965 C1787.75174,1457.3341 1785.22754,1457.54094 1783.54309,1456.11164 C1783.37675,1455.9705 1783.22224,1455.81599 1783.0811,1455.64965 L1773.435,1444.281 L1785.74887,1429.79971 L1785.81344,1429.73606 C1785.99731,1429.5848 1786.26741,1429.58202 1786.45457,1429.74083 L1786.45457,1429.74083 L1793.22397,1437.70834 C1793.38149,1437.89398 1793.38149,1438.16777 1793.22315,1438.35437 L1793.22315,1438.35437 L1786.51232,1446.26317 L1786.44803,1446.32648 C1786.26484,1446.47694 1785.99474,1446.47973 1785.80758,1446.32091 L1785.80758,1446.32091 L1781.29505,1441.39385 L1779.08215,1443.41946 L1783.28852,1448.00334 L1783.8508,1448.59429 L1784.02724,1448.73692 C1785.49702,1449.84446 1787.59382,1449.62541 1788.7998,1448.20416 L1788.7998,1448.20416 L1795.51063,1440.29536 L1795.64341,1440.12899 C1796.61708,1438.83049 1796.57282,1437.01818 1795.51063,1435.76638 L1795.51063,1435.76638 L1791.45946,1431.0025 L1788.67808,1427.75722 L1788.42513,1427.48093 L1788.23491,1427.32483 C1786.76513,1426.21729 1784.66833,1426.43633 1783.46235,1427.85759 L1783.46235,1427.85759 L1771.469,1441.963 L1771.42504,1441.91285 C1769.52499,1439.67361 1769.52499,1436.38813 1771.42504,1434.14889 L1783.0811,1420.4121 C1784.51041,1418.72764 1787.03461,1418.52081 1788.71906,1419.95011 Z" id="path-3"></path>
    </defs>
    <g id="页面-1" stroke="none" stroke-width="1" fill="none" fill-rule="evenodd">
        <g id="web-详情" transform="translate(-1770.000000, -1419.000000)">
            <mask id="mask-4" fill="white">
                <use xlink:href="#path-3"></use>
            </mask>
            <g id="矩形-2">
                <use fill="#002EBF" xlink:href="#path-3"></use>
                <use fill="url(#radialGradient-1)" xlink:href="#path-3"></use>
                <use fill="url(#radialGradient-2)" xlink:href="#path-3"></use>
            </g>
        </g>
    </g>
</svg>